<?xml version="1.0" encoding="UTF-8" standalone="no"?>
<!-- Created with Inkscape (http://www.inkscape.org/) -->

<svg
   width="210mm"
   height="297mm"
   viewBox="0 0 210 297"
   version="1.1"
   id="svg5"
   inkscape:version="1.1.1 (3bf5ae0d25, 2021-09-20, custom)"
   sodipodi:docname="glass.svg"
   xmlns:inkscape="http://www.inkscape.org/namespaces/inkscape"
   xmlns:sodipodi="http://sodipodi.sourceforge.net/DTD/sodipodi-0.dtd"
   xmlns="http://www.w3.org/2000/svg"
   xmlns:svg="http://www.w3.org/2000/svg">
  <sodipodi:namedview
     id="namedview7"
     pagecolor="#505050"
     bordercolor="#eeeeee"
     borderopacity="1"
     inkscape:pageshadow="0"
     inkscape:pageopacity="0"
     inkscape:pagecheckerboard="0"
     inkscape:document-units="mm"
     showgrid="false"
     inkscape:snap-object-midpoints="false"
     inkscape:snap-center="false"
     inkscape:snap-bbox="true"
     inkscape:bbox-paths="true"
     inkscape:bbox-nodes="true"
     inkscape:snap-bbox-edge-midpoints="true"
     inkscape:snap-bbox-midpoints="false"
     inkscape:snap-page="true"
     inkscape:snap-midpoints="true"
     inkscape:snap-smooth-nodes="true"
     inkscape:snap-intersection-paths="true"
     inkscape:object-paths="true"
     showguides="true"
     inkscape:guide-bbox="true"
     inkscape:zoom="0.93733289"
     inkscape:cx="230.44108"
     inkscape:cy="435.81102"
     inkscape:window-width="1880"
     inkscape:window-height="992"
     inkscape:window-x="20"
     inkscape:window-y="44"
     inkscape:window-maximized="0"
     inkscape:current-layer="layer1">
    <sodipodi:guide
       position="66.808394,143.33345"
       orientation="1,0"
       id="guide2140" />
    <sodipodi:guide
       position="103.7689,135.14425"
       orientation="1,0"
       id="guide2142" />
    <sodipodi:guide
       position="84.790717,244.50349"
       orientation="0,-1"
       id="guide2144" />
    <sodipodi:guide
       position="66.808394,235.73512"
       orientation="0,-1"
       id="guide3131" />
    <sodipodi:guide
       position="66.808324,106.37833"
       orientation="0,-1"
       id="guide3304" />
    <sodipodi:guide
       position="85.288585,87.623932"
       orientation="1,0"
       id="guide5571" />
  </sodipodi:namedview>
  <defs
     id="defs2" />
  <g
     inkscape:label="Layer 1"
     inkscape:groupmode="layer"
     id="layer1">
    <rect
       style="fill:#41ff00;fill-opacity:1;stroke-width:0.664755;stroke-linecap:square;paint-order:stroke markers fill"
       id="rect846"
       width="36.960663"
       height="32.809559"
       x="66.808296"
       y="76.731659"
       ry="0.2348676" />
    <rect
       style="fill:#4c9a8c;fill-opacity:1;stroke-width:0.664755;stroke-linecap:square;paint-order:stroke markers fill"
       id="rect846-3"
       width="36.960663"
       height="32.809559"
       x="66.808296"
       y="109.54122"
       ry="0.2348676" />
    <path
       id="path1315"
       style="fill:#9a4c98;fill-opacity:1;stroke-width:0.705556;stroke-linecap:square;paint-order:stroke markers fill"
       d="m 67.072845,172.14712 c -0.146579,0 -0.264583,0.11801 -0.264583,0.26459 v 18.21542 c 0,0.15997 0.0022,0.31955 0.0062,0.47852 0.004,0.15898 0.0096,0.3175 0.01757,0.47543 0.008,0.15792 0.01811,0.31549 0.02997,0.47232 0.01186,0.15683 0.02562,0.31301 0.04134,0.46871 0.01572,0.15569 0.03318,0.31058 0.05271,0.46508 0.01953,0.1545 0.04131,0.30821 0.0646,0.46147 0.02329,0.15327 0.04844,0.30639 0.07545,0.45837 0.027,0.15199 0.05563,0.30307 0.0863,0.45372 0.03067,0.15065 0.06338,0.30084 0.09767,0.45011 0.03429,0.14927 0.07014,0.2976 0.108003,0.44545 0.03786,0.14784 0.07747,0.29494 0.118856,0.44131 0.04139,0.14637 0.08484,0.29182 0.129709,0.43667 0.04486,0.14484 0.09123,0.28926 0.139526,0.43253 0.04829,0.14328 0.09819,0.28571 0.149862,0.42736 0.05167,0.14166 0.105191,0.28221 0.160195,0.4222 0.05501,0.13999 0.111723,0.27927 0.170016,0.41755 0.05829,0.13827 0.118303,0.27586 0.179834,0.41237 0.06153,0.13652 0.124415,0.27199 0.189135,0.4067 0.06472,0.13471 0.131091,0.26867 0.198956,0.40152 0.06786,0.13286 0.137295,0.26438 0.208256,0.39533 0.07096,0.13095 0.14355,0.26116 0.217557,0.39015 0.07401,0.129 0.149336,0.25696 0.226343,0.38396 0.07701,0.127 0.155686,0.2528 0.235646,0.37776 0.07996,0.12495 0.161046,0.24921 0.243911,0.37207 0.08286,0.12285 0.167495,0.24463 0.253214,0.36535 0.08572,0.12071 0.172953,0.24011 0.261483,0.35863 0.08853,0.11853 0.178461,0.23615 0.26975,0.35244 0.09129,0.11628 0.184015,0.23119 0.278022,0.34519 0.094,0.11401 0.189098,0.22681 0.285768,0.33849 0.09667,0.11167 0.19475,0.22247 0.29404,0.33176 0.09929,0.10929 0.19993,0.21715 0.301791,0.32401 0.101862,0.10686 0.20464,0.21239 0.309026,0.31678 0.104383,0.10438 0.210431,0.20768 0.317291,0.30954 0.106862,0.10186 0.214722,0.2025 0.324011,0.30179 0.109289,0.0993 0.219578,0.19736 0.331248,0.29404 0.111667,0.0967 0.224994,0.19176 0.338997,0.28577 0.114001,0.094 0.22891,0.18673 0.345197,0.27802 0.116287,0.0913 0.23391,0.18122 0.352436,0.26975 0.118522,0.0885 0.237918,0.17576 0.358632,0.26148 0.120716,0.0857 0.242496,0.16983 0.365352,0.2527 0.122857,0.0829 0.246605,0.16447 0.371555,0.24443 0.124952,0.08 0.251274,0.15864 0.378272,0.23564 0.126997,0.077 0.254957,0.15234 0.383955,0.22635 0.128998,0.074 0.258691,0.14659 0.389641,0.21755 0.130948,0.071 0.262988,0.14039 0.395841,0.20826 0.132852,0.0679 0.266816,0.13423 0.401526,0.19895 0.134708,0.0647 0.270177,0.12761 0.406694,0.18914 0.136517,0.0615 0.2741,0.12154 0.412377,0.17983 0.138279,0.0583 0.277556,0.11501 0.417547,0.17002 0.139991,0.055 0.28054,0.10852 0.422195,0.1602 0.141656,0.0517 0.284089,0.10156 0.427363,0.14986 0.143275,0.0483 0.28769,0.0947 0.432533,0.13952 0.144844,0.0449 0.290298,0.0883 0.436666,0.12971 0.146367,0.0414 0.293476,0.081 0.441317,0.11886 0.147841,0.0379 0.29618,0.0737 0.44545,0.108 0.14927,0.0343 0.299453,0.067 0.450101,0.0977 0.150651,0.0307 0.301739,0.0593 0.453721,0.0863 0.151979,0.027 0.304588,0.0522 0.457853,0.0755 0.153265,0.0233 0.307486,0.0451 0.461987,0.0646 0.1545,0.0195 0.309395,0.037 0.465087,0.0527 0.155691,0.0157 0.311875,0.0295 0.468706,0.0413 0.156832,0.0119 0.314397,0.0215 0.472321,0.0295 0.157928,0.008 0.316453,0.0141 0.475425,0.0181 0.158972,0.004 0.318553,0.006 0.478523,0.006 0.159969,0 0.319553,-0.002 0.478525,-0.006 0.158972,-0.004 0.316979,-0.0101 0.474906,-0.0181 0.157924,-0.008 0.315489,-0.0176 0.472321,-0.0295 0.156834,-0.0119 0.313015,-0.0256 0.468707,-0.0413 0.155691,-0.0157 0.311102,-0.0332 0.465603,-0.0527 0.154503,-0.0195 0.308208,-0.0413 0.46147,-0.0646 0.153268,-0.0233 0.305874,-0.0485 0.457854,-0.0755 0.151982,-0.027 0.303588,-0.0556 0.454236,-0.0863 0.150649,-0.0307 0.300316,-0.0634 0.449586,-0.0977 0.14927,-0.0343 0.298124,-0.0701 0.445968,-0.108 0.147841,-0.0379 0.294952,-0.0775 0.441314,-0.11886 0.146368,-0.0414 0.291823,-0.0848 0.436669,-0.12971 0.144843,-0.0449 0.28874,-0.0912 0.432014,-0.13952 0.143275,-0.0483 0.285708,-0.0982 0.427363,-0.14986 0.141658,-0.0517 0.282723,-0.10519 0.422714,-0.1602 0.139991,-0.055 0.279268,-0.11172 0.417544,-0.17002 0.13828,-0.0583 0.275347,-0.1183 0.411861,-0.17983 0.136518,-0.0615 0.272503,-0.12442 0.407213,-0.18914 0.134707,-0.0647 0.268155,-0.13109 0.401008,-0.19895 0.132852,-0.0679 0.264892,-0.1373 0.395843,-0.20826 0.130947,-0.071 0.261159,-0.14355 0.390157,-0.21755 0.128992,-0.074 0.256958,-0.14934 0.383955,-0.22635 0.126998,-0.077 0.252804,-0.15568 0.377754,-0.23564 0.124952,-0.08 0.248698,-0.16157 0.371554,-0.24443 0.122857,-0.0829 0.244637,-0.16698 0.365353,-0.2527 0.120713,-0.0857 0.240625,-0.17295 0.35915,-0.26148 0.118526,-0.0885 0.23563,-0.17846 0.351917,-0.26975 0.116287,-0.0913 0.231712,-0.18402 0.345716,-0.27802 0.114001,-0.094 0.226811,-0.1891 0.338481,-0.28577 0.111665,-0.0967 0.221956,-0.19475 0.331245,-0.29404 0.109289,-0.0993 0.217668,-0.19993 0.324527,-0.30179 0.10686,-0.10186 0.212392,-0.20516 0.316778,-0.30954 0.104384,-0.10439 0.20768,-0.20992 0.309541,-0.31678 0.101862,-0.10686 0.202499,-0.21472 0.30179,-0.32401 0.09929,-0.10929 0.19685,-0.22009 0.293523,-0.33176 0.09667,-0.11168 0.192281,-0.22448 0.286287,-0.33849 0.09401,-0.114 0.186727,-0.22891 0.278019,-0.34519 0.09129,-0.11629 0.181213,-0.23391 0.269743,-0.35244 0.0885,-0.11852 0.17577,-0.23792 0.26149,-0.35863 0.0857,-0.12072 0.16983,-0.2425 0.25269,-0.36535 0.0829,-0.12286 0.16447,-0.24712 0.24443,-0.37207 0.08,-0.12496 0.15812,-0.25076 0.23513,-0.37776 0.077,-0.127 0.15285,-0.25496 0.22686,-0.38396 0.074,-0.12899 0.1466,-0.2592 0.21756,-0.39015 0.071,-0.13095 0.13988,-0.26247 0.20774,-0.39533 0.0679,-0.13285 0.13423,-0.26681 0.19895,-0.40152 0.0647,-0.13471 0.12812,-0.27018 0.18966,-0.4067 0.0615,-0.13651 0.12154,-0.2741 0.17983,-0.41237 0.0583,-0.13828 0.11501,-0.27756 0.17001,-0.41755 0.055,-0.13999 0.10801,-0.28054 0.15969,-0.4222 0.0517,-0.14165 0.10156,-0.28408 0.14986,-0.42736 0.0483,-0.14327 0.0952,-0.28769 0.14004,-0.43253 0.0449,-0.14485 0.0878,-0.2903 0.12919,-0.43667 0.0414,-0.14637 0.081,-0.29347 0.11886,-0.44131 0.0379,-0.14785 0.0742,-0.29618 0.10852,-0.44545 0.0343,-0.14927 0.0665,-0.29946 0.0971,-0.45011 0.0307,-0.15065 0.0598,-0.30173 0.0868,-0.45372 0.027,-0.15198 0.0522,-0.3051 0.0755,-0.45837 0.0233,-0.15326 0.0446,-0.30697 0.0641,-0.46147 0.0195,-0.1545 0.037,-0.30939 0.0527,-0.46508 0.0157,-0.1557 0.0295,-0.31188 0.0413,-0.46871 0.0119,-0.15683 0.022,-0.3144 0.03,-0.47232 0.008,-0.15793 0.0141,-0.31645 0.0181,-0.47543 0.004,-0.15897 0.006,-0.31855 0.006,-0.47852 v -18.21542 c 0,-0.14658 -0.11801,-0.26459 -0.26459,-0.26459 H 85.288812 Z" />
    <rect
       style="fill:#584c9a;fill-opacity:1;stroke-width:0.664755;stroke-linecap:square;paint-order:stroke markers fill"
       id="rect846-3-6"
       width="36.960663"
       height="32.809559"
       x="66.808296"
       y="142.35078"
       ry="0.2348676" />
    <path
       style="fill:none;stroke:#d4d4d4;stroke-width:2.11667;stroke-linecap:butt;stroke-linejoin:miter;stroke-miterlimit:4;stroke-dasharray:none;stroke-opacity:1"
       d="m 66.808394,61.264884 -6.9e-5,129.362236 c 0,0 6.9e-5,18.74895 18.480262,18.74895 18.480313,0 18.480273,-18.74895 18.480273,-18.74895 l 2e-4,-129.362236 7.08181,-8.768373 -51.124286,0 z"
       id="path1967"
       sodipodi:nodetypes="ccsccccc"
       inkscape:export-filename="/home/sigrid/Projects/berzelius-game/Berzelius/Images/glass.png"
       inkscape:export-xdpi="91.378265"
       inkscape:export-ydpi="91.378265" />
    <path
       id="rect3328"
       style="fill:#ffffff;fill-opacity:0.30000001;stroke:none;stroke-width:8.00001;stroke-linecap:square;stroke-miterlimit:4;stroke-dasharray:none;stroke-opacity:1;paint-order:stroke markers fill"
       d="M 374.23242 198.41211 L 349.78516 231.55273 L 349.78516 720.45898 L 374.18555 720.45898 L 374.18555 231.55273 L 398.44531 198.41211 L 374.23242 198.41211 z "
       transform="scale(0.26458333)"
       inkscape:export-filename="/home/sigrid/Projects/berzelius-game/Berzelius/Images/glass.png"
       inkscape:export-xdpi="91.378265"
       inkscape:export-ydpi="91.378265" />
    <path
       style="fill:#ffffff;stroke:none;stroke-width:0.264583px;stroke-linecap:butt;stroke-linejoin:miter;stroke-opacity:1;fill-opacity:0.15000001"
       d="m 66.808325,190.62167 c 0,0 6.9e-5,18.7544 18.480262,18.7544 18.480313,0 18.480273,-18.7544 18.480273,-18.7544 0,0 4e-5,4.81929 -18.480275,4.81929 -18.480191,0 -18.48026,-4.81929 -18.48026,-4.81929 z"
       id="path5280"
       sodipodi:nodetypes="cscsc"
       inkscape:export-filename="/home/sigrid/Projects/berzelius-game/Berzelius/Images/glass.png"
       inkscape:export-xdpi="91.378265"
       inkscape:export-ydpi="91.378265" />
  </g>
</svg>
